<svg width="30" height="30" viewBox="0 0 30 30" fill="none" xmlns="http://www.w3.org/2000/svg">
<g id="headset_24px">
<path id="icon/hardware/headset_24px" fill-rule="evenodd" clip-rule="evenodd" d="M3.75 14.375C3.75 8.1625 8.7875 3.125 15 3.125C21.2125 3.125 26.25 8.1625 26.25 14.375V23.125C26.25 25.2 24.575 26.875 22.5 26.875H18.75V16.875H23.75V14.375C23.75 9.5375 19.8375 5.625 15 5.625C10.1625 5.625 6.25 9.5375 6.25 14.375V16.875H11.25V26.875H7.5C5.425 26.875 3.75 25.2 3.75 23.125V14.375ZM8.75 19.375V24.375H7.5C6.8125 24.375 6.25 23.8125 6.25 23.125V19.375H8.75ZM23.75 19.375V23.125C23.75 23.8125 23.1875 24.375 22.5 24.375H21.25V19.375H23.75Z" fill="#4C4F66"/>
</g>
</svg>
