<svg width="20" height="20" viewBox="0 0 20 20" fill="none" xmlns="http://www.w3.org/2000/svg">
<g id="sentiment_satisfied_24px">
<path id="icon/social/sentiment_satisfied_24px" fill-rule="evenodd" clip-rule="evenodd" d="M9.99163 1.66667C5.39163 1.66667 1.66663 5.40001 1.66663 10C1.66663 14.6 5.39163 18.3333 9.99163 18.3333C14.6 18.3333 18.3333 14.6 18.3333 10C18.3333 5.40001 14.6 1.66667 9.99163 1.66667ZM7.08329 6.66667C6.39294 6.66667 5.83329 7.22632 5.83329 7.91667C5.83329 8.60703 6.39294 9.16667 7.08329 9.16667C7.77365 9.16667 8.33329 8.60703 8.33329 7.91667C8.33329 7.22632 7.77365 6.66667 7.08329 6.66667ZM12.9166 6.66667C12.2263 6.66667 11.6666 7.22632 11.6666 7.91667C11.6666 8.60703 12.2263 9.16667 12.9166 9.16667C13.607 9.16667 14.1666 8.60703 14.1666 7.91667C14.1666 7.22632 13.607 6.66667 12.9166 6.66667ZM7.12496 11.6667C7.70829 12.6583 8.76662 13.3333 9.99996 13.3333C11.2333 13.3333 12.2916 12.6583 12.875 11.6667H14.2666C13.6 13.375 11.9416 14.5833 9.99996 14.5833C8.05829 14.5833 6.39996 13.375 5.73329 11.6667H7.12496ZM3.33329 10C3.33329 13.6833 6.31663 16.6667 9.99996 16.6667C13.6833 16.6667 16.6666 13.6833 16.6666 10C16.6666 6.31667 13.6833 3.33334 9.99996 3.33334C6.31663 3.33334 3.33329 6.31667 3.33329 10Z" fill="#4C4F66"/>
</g>
</svg>
