<svg width="20" height="20" viewBox="0 0 20 20" fill="none" xmlns="http://www.w3.org/2000/svg">
<g id="24 / basic / camera">
<path id="icon" fill-rule="evenodd" clip-rule="evenodd" d="M5.78089 4.87115C5.83993 4.78907 5.9055 4.68859 5.98912 4.5531C6.01965 4.50362 6.10289 4.36629 6.16491 4.26397L6.165 4.26382L6.23488 4.14868C6.92569 3.01866 7.42787 2.5 8.33337 2.5H11.6667C12.5722 2.5 13.0744 3.01866 13.7652 4.14868L13.835 4.26368L13.8352 4.26404C13.8972 4.36635 13.9804 4.50363 14.011 4.5531C14.0946 4.68859 14.1601 4.78907 14.2192 4.87115C14.2581 4.92527 14.2921 4.96828 14.3199 5H16.6667C18.0474 5 19.1667 6.11929 19.1667 7.5V15C19.1667 16.3807 18.0474 17.5 16.6667 17.5H3.33337C1.95266 17.5 0.833374 16.3807 0.833374 15V7.5C0.833374 6.11929 1.95266 5 3.33337 5H5.6802C5.70795 4.96828 5.74196 4.92527 5.78089 4.87115ZM3.33337 6.66667C2.87314 6.66667 2.50004 7.03976 2.50004 7.5V15C2.50004 15.4602 2.87314 15.8333 3.33337 15.8333H16.6667C17.1269 15.8333 17.5 15.4602 17.5 15V7.5C17.5 7.03976 17.1269 6.66667 16.6667 6.66667H14.1667C13.6131 6.66667 13.2397 6.36367 12.8662 5.84438C12.7803 5.7249 12.6951 5.59443 12.5926 5.42841C12.5575 5.3715 12.4663 5.22099 12.4038 5.11779L12.4038 5.11777L12.3432 5.01799C11.9663 4.40144 11.739 4.16667 11.6667 4.16667H8.33337C8.2611 4.16667 8.03379 4.40144 7.65687 5.01799L7.59626 5.11789C7.53371 5.22109 7.44254 5.37152 7.40743 5.42841C7.30497 5.59443 7.21983 5.7249 7.13388 5.84438C6.76035 6.36367 6.38699 6.66667 5.83337 6.66667H3.33337ZM16.6667 8.33333C16.6667 8.79357 16.2936 9.16667 15.8334 9.16667C15.3731 9.16667 15 8.79357 15 8.33333C15 7.8731 15.3731 7.5 15.8334 7.5C16.2936 7.5 16.6667 7.8731 16.6667 8.33333ZM5.83337 10.8333C5.83337 13.1345 7.69885 15 10 15C12.3012 15 14.1667 13.1345 14.1667 10.8333C14.1667 8.53215 12.3012 6.66667 10 6.66667C7.69885 6.66667 5.83337 8.53215 5.83337 10.8333ZM12.5 10.8333C12.5 12.214 11.3808 13.3333 10 13.3333C8.61933 13.3333 7.50004 12.214 7.50004 10.8333C7.50004 9.45262 8.61933 8.33333 10 8.33333C11.3808 8.33333 12.5 9.45262 12.5 10.8333Z" fill="#4C4F66"/>
</g>
</svg>
