<svg width="25" height="25" viewBox="0 0 25 25" fill="none" xmlns="http://www.w3.org/2000/svg">
<path fill-rule="evenodd" clip-rule="evenodd" d="M18.75 21.875C19.9006 21.875 20.8334 20.9423 20.8334 19.7917H21.875C23.0256 19.7917 23.9584 18.8589 23.9584 17.7083V7.29167C23.9584 6.14107 23.0256 5.20833 21.875 5.20833H20.8334C20.8334 4.05774 19.9006 3.125 18.75 3.125H6.25002C5.09943 3.125 4.16669 4.05774 4.16669 5.20833H3.12502C1.97443 5.20833 1.04169 6.14107 1.04169 7.29167V17.7083C1.04169 18.8589 1.97443 19.7917 3.12502 19.7917H4.16669C4.16669 20.9423 5.09943 21.875 6.25002 21.875H18.75ZM18.75 5.20833V19.7917H6.25002V5.20833H18.75ZM12.5 12.6463V7.42863L17.2445 10.5916L16.0889 12.3251L14.5834 11.3214V15.1042C14.5834 16.6182 13.1298 17.7083 11.4584 17.7083C9.78693 17.7083 8.33335 16.6182 8.33335 15.1042C8.33335 13.5902 9.78693 12.5 11.4584 12.5C11.8199 12.5 12.1713 12.551 12.5 12.6463ZM3.12502 7.29167H4.16669V17.7083H3.12502V7.29167ZM20.8334 7.29167V17.7083H21.875V7.29167H20.8334ZM12.5 15.1042C12.5 15.3161 12.0881 15.625 11.4584 15.625C10.8286 15.625 10.4167 15.3161 10.4167 15.1042C10.4167 14.8923 10.8286 14.5833 11.4584 14.5833C12.0881 14.5833 12.5 14.8923 12.5 15.1042Z" fill="#FB3C00"/>
</svg>
