<svg width="25" height="25" viewBox="0 0 25 25" fill="none" xmlns="http://www.w3.org/2000/svg">
<g id="headset_24px">
<path id="icon/hardware/headset_24px" fill-rule="evenodd" clip-rule="evenodd" d="M3.125 11.9792C3.125 6.80207 7.32292 2.60416 12.5 2.60416C17.6771 2.60416 21.875 6.80207 21.875 11.9792V19.2708C21.875 21 20.4792 22.3958 18.75 22.3958H15.625V14.0625H19.7917V11.9792C19.7917 7.94791 16.5312 4.68749 12.5 4.68749C8.46875 4.68749 5.20833 7.94791 5.20833 11.9792V14.0625H9.375V22.3958H6.25C4.52083 22.3958 3.125 21 3.125 19.2708V11.9792ZM7.29167 16.1458V20.3125H6.25C5.67708 20.3125 5.20833 19.8437 5.20833 19.2708V16.1458H7.29167ZM19.7917 16.1458V19.2708C19.7917 19.8437 19.3229 20.3125 18.75 20.3125H17.7083V16.1458H19.7917Z" fill="#FB3C00"/>
</g>
</svg>
