<svg width="22" height="18" viewBox="0 0 22 18" fill="none" xmlns="http://www.w3.org/2000/svg">
<path fill-rule="evenodd" clip-rule="evenodd" d="M5.93702 2.84538C6.00787 2.74688 6.08656 2.62631 6.18689 2.46372C6.22355 2.40433 6.32349 2.23944 6.39792 2.11665L6.39798 2.11654L6.4818 1.97841C7.31079 0.622387 7.91339 0 9 0H13C14.0866 0 14.6892 0.622387 15.5182 1.97841L15.6021 2.11664C15.6765 2.23943 15.7765 2.40433 15.8131 2.46372C15.9134 2.62631 15.9921 2.74688 16.063 2.84538C16.1097 2.91033 16.1505 2.96194 16.1838 3H19C20.6569 3 22 4.34315 22 6V15C22 16.6569 20.6569 18 19 18H3C1.34315 18 0 16.6569 0 15V6C0 4.34315 1.34315 3 3 3H5.8162C5.84949 2.96194 5.8903 2.91033 5.93702 2.84538ZM3 5C2.44772 5 2 5.44772 2 6V15C2 15.5523 2.44772 16 3 16H19C19.5523 16 20 15.5523 20 15V6C20 5.44772 19.5523 5 19 5H16C15.3357 5 14.8876 4.63641 14.4394 4.01326C14.3363 3.86988 14.2341 3.71332 14.1111 3.51409C14.069 3.44583 13.9596 3.26536 13.8846 3.14152L13.8118 3.02159C13.3595 2.28172 13.0867 2 13 2H9C8.91327 2 8.6405 2.28172 8.1882 3.02159L8.11543 3.14152L8.11502 3.14219C8.03998 3.26601 7.93092 3.44596 7.88887 3.51409C7.76592 3.71332 7.66375 3.86988 7.56061 4.01326C7.11237 4.63641 6.66434 5 6 5H3ZM19 7C19 7.55228 18.5523 8 18 8C17.4477 8 17 7.55228 17 7C17 6.44772 17.4477 6 18 6C18.5523 6 19 6.44772 19 7ZM6 10C6 12.7614 8.23858 15 11 15C13.7614 15 16 12.7614 16 10C16 7.23858 13.7614 5 11 5C8.23858 5 6 7.23858 6 10ZM14 10C14 11.6569 12.6569 13 11 13C9.34315 13 8 11.6569 8 10C8 8.34315 9.34315 7 11 7C12.6569 7 14 8.34315 14 10Z" fill="#4C4F66"/>
</svg>
