<svg width="536" height="512" viewBox="0 0 536 512" fill="none" xmlns="http://www.w3.org/2000/svg">
<path d="M174.332 150.657L174.072 150.695L27.9721 171.995L27.9718 171.995C2.18241 175.735 -8.1544 207.531 10.5488 225.742L10.5489 225.742L116.249 328.742L116.437 328.925L116.393 329.185L91.3928 474.684C91.3928 474.684 91.3928 474.685 91.3928 474.685C86.9636 500.572 114.23 519.965 137.066 507.858L137.067 507.857L267.767 439.157L268 439.035L268.233 439.157L398.933 507.857L398.7 508.3L398.933 507.857C421.772 519.868 449.036 500.569 444.607 474.684L419.607 329.185L419.563 328.925L419.751 328.742L525.451 225.742L525.8 226.1L525.451 225.742C544.154 207.531 533.818 175.735 508.028 171.995L508.028 171.995L361.928 150.695L361.668 150.657L361.552 150.421L296.252 18.0221L174.332 150.657ZM174.332 150.657L174.448 150.421M174.332 150.657L174.448 150.421M174.448 150.421L239.748 18.0213M174.448 150.421L239.748 18.0213M239.748 18.0213C251.362 -5.50164 284.732 -5.21258 296.252 18.0211L239.748 18.0213Z" fill="#FB3C00" stroke="black"/>
</svg>
