<svg width="20" height="20" viewBox="0 0 20 20" fill="none" xmlns="http://www.w3.org/2000/svg">
<path fill-rule="evenodd" clip-rule="evenodd" d="M10 19.4396L10.5481 18.961C15.1572 14.9364 17.5 11.4223 17.5 8.33333C17.5 3.95888 14.0858 0.833328 10 0.833328C5.91421 0.833328 2.5 3.95888 2.5 8.33333C2.5 11.4223 4.84276 14.9364 9.45189 18.961L10 19.4396ZM10 17.2195C6.08884 13.6946 4.16667 10.7077 4.16667 8.33333C4.16667 4.91383 6.80343 2.49999 10 2.49999C13.1966 2.49999 15.8333 4.91383 15.8333 8.33333C15.8333 10.7077 13.9112 13.6946 10 17.2195ZM10 4.16666C12.3012 4.16666 14.1667 6.03214 14.1667 8.33333C14.1667 10.6345 12.3012 12.5 10 12.5C7.69881 12.5 5.83333 10.6345 5.83333 8.33333C5.83333 6.03214 7.69881 4.16666 10 4.16666ZM7.5 8.33333C7.5 6.95262 8.61929 5.83333 10 5.83333C11.3807 5.83333 12.5 6.95262 12.5 8.33333C12.5 9.71404 11.3807 10.8333 10 10.8333C8.61929 10.8333 7.5 9.71404 7.5 8.33333Z" fill="#4C4F66"/>
</svg>
