<svg width="20" height="20" viewBox="0 0 20 20" fill="none" xmlns="http://www.w3.org/2000/svg">
<g id="24 / basic / image">
<path id="icon" fill-rule="evenodd" clip-rule="evenodd" d="M3.33329 1.66667H16.6666C17.5871 1.66667 18.3333 2.41286 18.3333 3.33334V16.6667C18.3333 17.5871 17.5871 18.3333 16.6666 18.3333H3.33329C2.41282 18.3333 1.66663 17.5871 1.66663 16.6667V3.33334C1.66663 2.41286 2.41282 1.66667 3.33329 1.66667ZM3.33329 3.33334V12.9882L6.66662 9.65483L9.58329 12.5715L15 7.15483L16.6666 8.8215V3.33334H3.33329ZM3.33329 16.6667V15.3452L6.66662 12.0118L11.3214 16.6667H3.33329ZM16.6666 16.6667H13.6785L10.7618 13.75L15 9.51185L16.6666 11.1785V16.6667ZM11.6666 6.66667C11.6666 5.28596 10.5473 4.16667 9.16663 4.16667C7.78591 4.16667 6.66663 5.28596 6.66663 6.66667C6.66663 8.04738 7.78591 9.16667 9.16663 9.16667C10.5473 9.16667 11.6666 8.04738 11.6666 6.66667ZM8.33329 6.66667C8.33329 6.20643 8.70639 5.83334 9.16663 5.83334C9.62686 5.83334 9.99996 6.20643 9.99996 6.66667C9.99996 7.12691 9.62686 7.5 9.16663 7.5C8.70639 7.5 8.33329 7.12691 8.33329 6.66667Z" fill="#4C4F66"/>
</g>
</svg>
