<svg width="20" height="20" viewBox="0 0 20 20" fill="none" xmlns="http://www.w3.org/2000/svg">
<path fill-rule="evenodd" clip-rule="evenodd" d="M2 0H18C19.1046 0 20 0.89543 20 2V18C20 19.1046 19.1046 20 18 20H2C0.89543 20 0 19.1046 0 18V2C0 0.89543 0.89543 0 2 0ZM2 2V13.5858L6 9.58579L9.5 13.0858L16 6.58579L18 8.58579V2H2ZM2 18V16.4142L6 12.4142L11.5858 18H2ZM18 18H14.4142L10.9142 14.5L16 9.41421L18 11.4142V18ZM12 6C12 4.34315 10.6569 3 9 3C7.34315 3 6 4.34315 6 6C6 7.65685 7.34315 9 9 9C10.6569 9 12 7.65685 12 6ZM8 6C8 5.44772 8.44771 5 9 5C9.55229 5 10 5.44772 10 6C10 6.55228 9.55229 7 9 7C8.44771 7 8 6.55228 8 6Z" fill="#4C4F66"/>
</svg>
