<svg width="536" height="512" viewBox="0 0 536 512" fill="none" xmlns="http://www.w3.org/2000/svg">
<path d="M508.1 171.5L362 150.2L296.7 17.8C285 -5.80002 251.1 -6.10002 239.3 17.8L174 150.2L27.9 171.5C1.69999 175.3 -8.80001 207.6 10.2 226.1L115.9 329.1L90.9 474.6C86.4 500.9 114.1 520.6 137.3 508.3L268 439.6L398.7 508.3C421.9 520.5 449.6 500.9 445.1 474.6L420.1 329.1L525.8 226.1C544.8 207.6 534.3 175.3 508.1 171.5V171.5ZM368.6 312.3L392.3 450.7L268 385.4L143.7 450.7L167.4 312.3L66.8 214.3L205.8 194.1L268 68.1L330.2 194.1L469.2 214.3L368.6 312.3V312.3Z" fill="#999999"/>
</svg>
